
      <svg data-logo="logo" xmlns="http://www.w3.org/2000/svg" viewBox="0 0 258 42">
        <g id="logogram" transform="translate(0, 1) rotate(0) "><path d="M28.7089 33.1053L1.9434 14.6424C-0.768963 12.7715 0.15306 8.87601 3.53531 7.95996L31.9823 0.239132C32.5849 0.0216955 33.2306 -0.0488885 33.866 0.0332432C34.5013 0.115375 35.1079 0.34785 35.6355 0.711378C36.1629 1.07491 36.5961 1.559 36.899 2.12348C37.2018 2.68795 37.3658 3.31654 37.3771 3.95706L35.6912 30.1393C35.4913 33.247 31.4213 34.9762 28.7089 33.1053Z" fill="#E9327C"/><path d="M20.2197 37.6632L4.45132 6.82618C4.09087 6.12072 3.93226 5.32941 3.99297 4.53953C4.05367 3.74965 4.33135 2.99187 4.79536 2.34978C5.25939 1.70769 5.89172 1.20622 6.62264 0.900668C7.35356 0.595117 8.15466 0.497365 8.93761 0.618198L38.1604 5.12834C38.8331 5.23219 39.4717 5.49425 40.0236 5.89298C40.5753 6.29172 41.0245 6.81572 41.3344 7.42191C41.6441 8.0281 41.8057 8.69917 41.8055 9.37994C41.8054 10.0607 41.6437 10.7317 41.3338 11.3378L27.8719 37.6647C27.5104 38.3681 26.962 38.9583 26.2869 39.3703C25.6118 39.7823 24.8363 40.0002 24.0454 40C23.2545 39.9999 22.479 39.7817 21.804 39.3695C21.1291 38.9571 20.5809 38.3668 20.2197 37.6632Z" fill="#1DACE3"/><path d="M37.3055 4.9955L22.7382 2.74713L4.85269 7.60342L11.9917 21.5695L28.7089 33.1053C29.0777 33.357 29.4834 33.5497 29.9114 33.6767L36.2612 21.2592L37.3055 4.9955Z" fill="#001A49"/></g>
        <g id="logotype" transform="translate(48, 1)"><path fill="#111111" d="M23.82 13.12L8.84 13.12Q7.86 13.12 7.19 12.45Q6.53 11.79 6.53 10.81L6.53 10.81Q6.53 9.79 7.19 9.15Q7.86 8.50 8.84 8.50L8.84 8.50L23.82 8.50Q24.83 8.50 25.48 9.15Q26.13 9.79 26.13 10.81L26.13 10.81Q26.13 11.79 25.48 12.45Q24.83 13.12 23.82 13.12L23.82 13.12ZM16.33 33.35L16.33 33.35Q15.28 33.35 14.61 32.67Q13.95 31.98 13.95 30.93L13.95 30.93L13.95 10.88L18.74 10.88L18.74 30.93Q18.74 31.98 18.06 32.67Q17.38 33.35 16.33 33.35ZM30.05 33.35L30.05 33.35Q29.10 33.35 28.42 32.67Q27.74 31.98 27.74 31.00L27.74 31.00L27.74 16.93Q27.74 15.99 28.44 15.31Q29.14 14.63 30.15 14.63L30.15 14.63Q31.20 14.63 31.80 15.32Q32.39 16.02 32.39 16.97L32.39 16.97L32.39 18.58L31.73 18.20Q32.11 17.35 32.74 16.48Q33.37 15.60 34.28 15.03Q35.19 14.45 36.28 14.45L36.28 14.45Q37.40 14.45 38.08 15.06Q38.76 15.67 38.76 16.76L38.76 16.76Q38.76 17.70 38.04 18.39Q37.33 19.07 36.21 19.07L36.21 19.07Q34.88 19.07 34.04 19.56Q33.20 20.05 32.79 20.91Q32.39 21.77 32.39 22.92L32.39 22.92L32.39 31.00Q32.39 31.98 31.71 32.67Q31.03 33.35 30.05 33.35ZM46.04 33.52L46.04 33.52Q44.43 33.52 43.01 32.90Q41.60 32.27 40.70 31.06Q39.81 29.85 39.81 28.06L39.81 28.06Q39.81 25.51 41.47 24.06Q43.14 22.60 46.85 22.04L46.85 22.04Q48.04 21.87 48.98 21.71Q49.93 21.55 50.50 21.22Q51.08 20.89 51.08 20.16L51.08 20.16Q51.08 19.63 50.78 19.21Q50.49 18.79 49.93 18.56Q49.37 18.34 48.53 18.34L48.53 18.34Q47.44 18.34 46.74 18.75Q46.04 19.17 45.59 19.73L45.59 19.73Q45.13 20.23 44.57 20.52Q44.01 20.82 43.28 20.82L43.28 20.82Q42.30 20.82 41.72 20.31Q41.14 19.80 41.14 18.93L41.14 18.93Q41.14 18.05 41.70 17.27Q42.26 16.48 43.26 15.85Q44.26 15.22 45.59 14.85Q46.92 14.48 48.46 14.48L48.46 14.48Q50.84 14.48 52.45 15.34Q54.06 16.20 54.88 17.74Q55.70 19.28 55.70 21.27L55.70 21.27L55.70 28.20Q55.70 28.66 55.81 28.82Q55.91 28.98 56.23 29.08L56.23 29.08Q56.79 29.29 57.28 29.78Q57.77 30.27 57.77 31.11L57.77 31.11Q57.77 32.05 57.08 32.72Q56.40 33.38 55.11 33.35L55.11 33.35Q53.67 33.31 52.88 32.63Q52.10 31.95 51.89 30.83L51.89 30.83L51.85 30.59L51.75 30.59Q50.80 32.02 49.51 32.77Q48.21 33.52 46.04 33.52ZM47.06 29.57L47.06 29.57Q48.18 29.57 49.09 29.11Q50.00 28.66 50.54 27.82Q51.08 26.98 51.08 25.82L51.08 25.82L51.08 24.60Q51.08 24.49 51.03 24.49Q50.98 24.49 50.87 24.56L50.87 24.56Q50.45 24.84 49.86 24.98Q49.26 25.13 48.61 25.21Q47.97 25.30 47.30 25.48L47.30 25.48Q45.69 25.79 45.08 26.31Q44.47 26.84 44.47 27.64L44.47 27.64Q44.47 28.52 45.11 29.04Q45.76 29.57 47.06 29.57ZM66.83 33.38L66.83 33.38Q66.13 33.38 65.50 32.98Q64.87 32.58 64.52 31.74L64.52 31.74L59.17 17.77Q58.89 17.11 59.06 16.39Q59.24 15.67 59.80 15.15Q60.36 14.63 61.27 14.63L61.27 14.63Q62.07 14.63 62.65 15.04Q63.23 15.46 63.47 16.09L63.47 16.09L67.57 26.77L66.66 26.88L70.89 16.09Q71.14 15.46 71.71 15.04Q72.29 14.63 72.99 14.63L72.99 14.63Q73.76 14.63 74.29 15.13Q74.81 15.64 75.02 16.36Q75.23 17.07 74.95 17.77L74.95 17.77L69.14 31.74Q68.83 32.51 68.18 32.95Q67.53 33.38 66.83 33.38ZM85.59 33.52L85.59 33.52Q83.07 33.52 81.09 32.35Q79.12 31.18 77.98 29.06Q76.84 26.95 76.84 24.07L76.84 24.07Q76.84 21.38 77.87 19.19Q78.91 17.00 80.81 15.73Q82.72 14.45 85.35 14.45L85.35 14.45Q87.31 14.45 88.86 15.18Q90.42 15.92 91.51 17.11Q92.59 18.30 93.15 19.70Q93.71 21.10 93.71 22.46L93.71 22.46Q93.71 23.80 93.06 24.56Q92.42 25.34 90.95 25.34L90.95 25.34L81.67 25.34Q81.92 26.73 82.55 27.63Q83.18 28.52 84.07 28.94Q84.96 29.36 86.05 29.36L86.05 29.36Q87.20 29.36 87.90 28.91Q88.60 28.45 89.16 27.82L89.16 27.82Q89.51 27.47 89.95 27.17Q90.39 26.88 91.09 26.88L91.09 26.88Q92.00 26.88 92.59 27.45Q93.19 28.03 93.19 29.04L93.19 29.04Q93.19 29.88 92.61 30.67Q92.03 31.46 91.00 32.11Q89.97 32.76 88.60 33.14Q87.24 33.52 85.59 33.52ZM81.67 22.11L81.67 22.11L89.06 22.11Q88.81 20.36 87.85 19.47Q86.89 18.58 85.38 18.58L85.38 18.58Q83.91 18.58 82.93 19.44Q81.95 20.29 81.67 22.11ZM99.87 33.35L99.87 33.35Q98.89 33.35 98.23 32.67Q97.56 31.98 97.56 30.97L97.56 30.97L97.56 9.76Q97.56 8.78 98.23 8.11Q98.89 7.45 99.87 7.45L99.87 7.45Q100.89 7.45 101.55 8.11Q102.22 8.78 102.22 9.76L102.22 9.76L102.22 30.97Q102.22 31.98 101.55 32.67Q100.89 33.35 99.87 33.35ZM118.04 33L110.06 33Q108.94 33 108.20 32.28Q107.47 31.57 107.47 30.41L107.47 30.41L107.47 11.09Q107.47 9.97 108.20 9.23Q108.94 8.50 110.06 8.50L110.06 8.50L116.81 8.50Q119.02 8.50 120.73 9.39Q122.45 10.28 123.41 11.86Q124.37 13.43 124.37 15.39L124.37 15.39Q124.37 17.35 123.43 18.77Q122.48 20.19 121.19 21.10L121.19 21.10L120.87 19.38Q122.90 20.29 124.30 21.98Q125.70 23.66 125.70 26L125.70 26Q125.70 27.86 124.79 29.46Q123.88 31.07 122.17 32.04Q120.45 33 118.04 33L118.04 33ZM112.30 22.53L112.30 28.63L117.79 28.63Q119.16 28.63 120.00 27.77Q120.84 26.91 120.84 25.51L120.84 25.51Q120.84 24.21 119.96 23.38Q119.09 22.53 117.72 22.53L117.72 22.53L112.30 22.53ZM112.30 12.84L112.30 18.41L116.53 18.37Q117.83 18.37 118.63 17.67Q119.44 16.97 119.44 15.57L119.44 15.57Q119.44 14.38 118.60 13.61Q117.76 12.84 116.46 12.84L116.46 12.84L112.30 12.84ZM135.99 33.35L135.99 33.35Q133.79 33.35 132.33 32.53Q130.88 31.70 130.16 30.16Q129.45 28.63 129.45 26.42L129.45 26.42L129.45 16.76Q129.45 15.81 130.13 15.13Q130.81 14.45 131.76 14.45L131.76 14.45Q132.74 14.45 133.40 15.13Q134.07 15.81 134.07 16.76L134.07 16.76L134.07 25.65Q134.07 27.57 135.01 28.27Q135.96 28.98 137.46 28.98L137.46 28.98Q138.65 28.98 139.49 28.45Q140.33 27.93 140.79 27.07Q141.24 26.21 141.24 25.20L141.24 25.20L141.24 16.76Q141.24 15.81 141.92 15.13Q142.61 14.45 143.59 14.45L143.59 14.45Q144.57 14.45 145.23 15.13Q145.90 15.81 145.90 16.76L145.90 16.76L145.90 31.00Q145.90 31.95 145.23 32.63Q144.57 33.31 143.59 33.31L143.59 33.31Q142.61 33.31 141.92 32.63Q141.24 31.95 141.24 31.00L141.24 31.00L141.24 28.70L142.19 29.15Q141.07 31.25 139.58 32.30Q138.09 33.35 135.99 33.35ZM157.59 33.52L157.59 33.52Q155.24 33.52 153.49 32.32Q151.74 31.11 150.74 28.94Q149.75 26.77 149.75 23.93L149.75 23.93Q149.75 21.13 150.74 19.02Q151.74 16.90 153.51 15.67Q155.28 14.45 157.55 14.45L157.55 14.45Q158.85 14.45 159.90 14.82Q160.95 15.18 161.79 15.88Q162.63 16.58 163.29 17.60L163.29 17.60L162.56 17.95L162.56 9.76Q162.56 8.78 163.22 8.11Q163.89 7.45 164.87 7.45L164.87 7.45Q165.88 7.45 166.55 8.11Q167.21 8.78 167.21 9.76L167.21 9.76L167.21 30.97Q167.21 31.98 166.55 32.67Q165.88 33.35 164.87 33.35L164.87 33.35Q163.89 33.35 163.20 32.53Q162.52 31.70 162.56 30.48L162.56 30.48L162.59 29.36L163.40 29.29Q163.05 30.34 162.26 31.30Q161.47 32.27 160.30 32.90Q159.13 33.52 157.59 33.52ZM158.67 29.32L158.67 29.32Q160.49 29.29 161.59 27.91Q162.70 26.52 162.70 24.00L162.70 24.00Q162.70 21.55 161.63 20.10Q160.56 18.65 158.64 18.65L158.64 18.65Q156.71 18.65 155.61 20.09Q154.51 21.52 154.51 24.04L154.51 24.04Q154.51 26.52 155.61 27.93Q156.71 29.32 158.67 29.32ZM178.90 33.52L178.90 33.52Q176.56 33.52 174.81 32.32Q173.06 31.11 172.06 28.94Q171.06 26.77 171.06 23.93L171.06 23.93Q171.06 21.13 172.06 19.02Q173.06 16.90 174.82 15.67Q176.59 14.45 178.87 14.45L178.87 14.45Q180.16 14.45 181.21 14.82Q182.26 15.18 183.10 15.88Q183.94 16.58 184.61 17.60L184.61 17.60L183.87 17.95L183.87 9.76Q183.87 8.78 184.54 8.11Q185.20 7.45 186.18 7.45L186.18 7.45Q187.20 7.45 187.86 8.11Q188.53 8.78 188.53 9.76L188.53 9.76L188.53 30.97Q188.53 31.98 187.86 32.67Q187.20 33.35 186.18 33.35L186.18 33.35Q185.20 33.35 184.52 32.53Q183.84 31.70 183.87 30.48L183.87 30.48L183.91 29.36L184.71 29.29Q184.36 30.34 183.57 31.30Q182.79 32.27 181.61 32.90Q180.44 33.52 178.90 33.52ZM179.99 29.32L179.99 29.32Q181.81 29.29 182.91 27.91Q184.01 26.52 184.01 24.00L184.01 24.00Q184.01 21.55 182.94 20.10Q181.88 18.65 179.95 18.65L179.95 18.65Q178.03 18.65 176.92 20.09Q175.82 21.52 175.82 24.04L175.82 24.04Q175.82 26.52 176.92 27.93Q178.03 29.32 179.99 29.32ZM197.00 40.49L197.00 40.49Q195.49 40.49 194.37 39.95Q193.25 39.41 192.64 38.53Q192.03 37.66 192.03 36.78L192.03 36.78Q192.03 35.87 192.62 35.31Q193.22 34.75 194.20 34.75L194.20 34.75Q195.00 34.75 195.35 35.05Q195.70 35.34 195.95 35.63L195.95 35.63Q196.12 35.84 196.33 35.98Q196.54 36.12 196.72 36.12L196.72 36.12Q196.96 36.12 197.10 35.94Q197.24 35.77 197.35 35.48L197.35 35.48L198.50 32.37L192.76 17.91Q192.52 17.21 192.71 16.46Q192.90 15.71 193.46 15.17Q194.02 14.63 194.86 14.63L194.86 14.63Q195.67 14.63 196.24 15.10Q196.82 15.57 197.10 16.30L197.10 16.30L201.62 27.93L200.32 28.13L204.91 16.09Q205.15 15.46 205.73 15.04Q206.31 14.63 207.11 14.63L207.11 14.63Q207.99 14.63 208.56 15.13Q209.14 15.64 209.32 16.38Q209.49 17.11 209.21 17.77L209.21 17.77L201.90 36.26Q201.02 38.46 199.95 39.48Q198.89 40.49 197.00 40.49Z"/></g>
        
      </svg>
    